[img]http://img846.imageshack.us/img846/5497/newsuckerpunchposter.jpg[/img]
[code]
Sucker.Punch.2011.TS.NEW-AUDIO.XVID.AC3.Hive-CM8

Thx Hive

CM8 Doing It Right The First Time 

Sources: 
Video: Addicted thx
Audio: New Sweet Line Audio from peeraccess (thx guys)

Encode:
I synced the line lipsync to the addicted video, removed the interlace, added brightness,contrast,sharpness and hardcoded subs over the foreign subs.
Video is nice, audio is crystal clear
enjoy

Video: 720x320 @bitrate 1600 2pass
Audio: English AC3 2.0 Stereo
Sample: yes 2 included
Subs: yes hardcoded for the foreign parts


General
Complete name                    : Sucker.Punch.2011.TS.NEW-AUDIO.XVID.AC3.Hive-CM8.avi
Format                           : AVI
Format/Info                      : Audio Video Interleave
File size                        : 1.36 GiB
Duration                         : 1h 44mn
Overall bit rate                 : 1 866 Kbps
Writing application              : Nandub v1.0rc2
Writing library                  : Nandub build 1853/release



Video
ID                               : 0
Format                           : MPEG-4 Visual
Format profile                   : Advanced Simple@L5
Format settings, BVOP            : Yes
Format settings, QPel            : Yes
Format settings, GMC             : No warppoints
Format settings, Matrix          : Default (H.263)
Muxing mode                      : Packed bitstream
Codec ID                         : XVID
Codec ID/Hint                    : XviD
Duration                         : 1h 44mn
Bit rate                         : 1 600 Kbps
Width                            : 720 pixels
Height                           : 320 pixels
Display aspect ratio             : 2.25:1
Frame rate                       : 25.000 fps
Color space                      : YUV
Chroma subsampling               : 4:2:0
Bit depth                        : 8 bits
Scan type                        : Progressive
Bits/(Pixel*Frame)               : 0.278
Stream size                      : 1.16 GiB (86%)
Writing library                  : XviD 1.2.1 (UTC 2008-12-04)

Audio
ID                               : 1
Format                           : AC-3
Format/Info                      : Audio Coding 3
Mode extension                   : CM (complete main)
Codec ID                         : 2000
Duration                         : 1h 44mn
Bit rate mode                    : Constant
Bit rate                         : 256 Kbps
Channel(s)                       : 2 channels
Channel positions                : Front: L R
Sampling rate                    : 48.0 KHz
Bit depth                        : 16 bits
Video delay                      : 28ms
Stream size                      : 190 MiB (14%)
Alignment                        : Split accross interleaves
Interleave, duration             : 40 ms (1.00 video frame)
Interleave, preload duration     : 500 ms

Cast:
Emily Browning	 ... Baby Doll
Abbie Cornish	... Sweet Pea
Jena Malone	... Rocket
Vanessa Hudgens	... Blondie
Jamie Chung	... Amber
Carla Gugino	... Dr. Vera Gorski
Oscar Isaac	... Blue Jones


Plot:
A young girl (Baby Doll) is locked away in a mental asylum by her abusive stepfather 
where she will undergo a lobotomy in five days time. Faced with unimaginable odds, 
she retreats to a fantastical world in her imagination where she and four other female 
inmates at the asylum, plot to escape the facility. The lines between reality and fantasy 
blur as Baby Doll and her four companions, as well as a mysterious guide, fight to retrieve 
the five items they need that will allow them to break free from their captors before it's too late...
[/code]
Screens:
[img]http://img854.imageshack.us/img854/3182/59683212.png[/img]
[img]http://img19.imageshack.us/img19/6264/16048516.png[/img]
[img]http://img834.imageshack.us/img834/8717/54072103.png[/img]
[img]http://img156.imageshack.us/img156/817/80541317.png[/img]
